<?xml version="1.0" encoding="utf-8"?>
<!-- Generator: Adobe Illustrator 28.0.0, SVG Export Plug-In . SVG Version: 6.00 Build 0)  -->
<svg version="1.1" id="Layer_1" xmlns="http://www.w3.org/2000/svg" xmlns:xlink="http://www.w3.org/1999/xlink" x="0px" y="0px"
	 viewBox="0 0 100 100" style="enable-background:new 0 0 100 100;" xml:space="preserve">
<g>
	<path d="M49.2,3.2C54.8,9,60.1,15.3,64.8,21.9l0.8,1.1l1.3,0.1c7.2,0.7,14.5,2,21.6,3.7c-1.8,7-4.1,14-6.8,20.7l-0.3,0.8l-0.5,1.2
		l0.5,1.2l0.4,0.8c3.1,7,5.8,14.2,7.9,21.5c-6.9,1.7-14.1,3-21.2,3.7l-0.9,0.1L66.2,77l-0.8,1.1l-0.5,0.8c-4.3,6.3-9,12.4-14.1,17.9
		C45.2,91,39.9,84.7,35.2,78.1L34.4,77L33,76.9c-7.3-0.7-14.6-2-21.6-3.6c1.8-7,4.1-14,6.8-20.7l0.3-0.8l0.5-1.2l-0.5-1.2l-0.4-0.8
		c-3.1-7-5.8-14.2-7.9-21.5c6.9-1.7,14-3,21.2-3.7l0.9-0.1l1.4-0.2l0.8-1.1l0.5-0.8C39.4,14.8,44.1,8.8,49.2,3.2 M49.1,0
		c-0.7,0-1.4,0.3-1.9,0.8c-5.3,5.8-10.2,12-14.7,18.6l-0.5,0.8l-0.9,0.1c-7.4,0.8-14.8,2.1-22,3.9c-0.7,0.2-1.2,0.6-1.6,1.2
		c-0.3,0.6-0.4,1.3-0.2,2c2.2,7.6,5,15.1,8.2,22.4l0.4,0.8l-0.3,0.8c-2.8,7-5.2,14.2-7.1,21.5c-0.2,0.7-0.1,1.4,0.3,2
		c0.4,0.6,0.9,1,1.6,1.2c7.3,1.8,14.9,3,22.5,3.8c0,0,0,0,0,0c5,6.9,10.4,13.4,16.3,19.4c0.5,0.5,1.1,0.8,1.8,0.8
		c0.7,0,1.4-0.3,1.9-0.8c5.3-5.8,10.2-12,14.7-18.6l0.5-0.8l0.9-0.1c7.4-0.8,14.8-2.1,22-3.9c0.7-0.2,1.2-0.6,1.6-1.2
		c0.3-0.6,0.4-1.3,0.2-2c-2.2-7.6-5-15.2-8.2-22.4l-0.4-0.8l0.3-0.8c2.8-7,5.2-14.2,7.1-21.5c0.2-0.7,0.1-1.4-0.3-2
		c-0.4-0.6-0.9-1-1.6-1.2c-7.4-1.8-14.9-3.1-22.5-3.8C62.3,13.3,56.8,6.8,51,0.8C50.5,0.3,49.8,0,49.1,0L49.1,0z"/>
</g>
<path d="M66.5,31.7c-0.1,1,0.2,2.7,1.4,3.1c2,0.7,2.5,1.6,2.7,3.7c0.4,3.3,0.7,6.3,1.3,9c0.4,1.7,0.3,3.5,0.7,5.3
	c0.1,0.7,0.3,2.8-0.7,2.9c-0.5,0.1-0.7-0.1-0.7-0.7c0.1-1.9-0.1-3.6-0.5-5.3c-0.7-2.6-1.6-5-1.9-7.6c-0.1-0.7-0.1-0.7-0.2,0
	c-0.1,1.8-0.4,3.3,0.3,5c1.3,3.1,1.6,6.6,1,10c-0.2,1.3-0.5,2.7-0.8,4.1c-0.6,2.7,0,5.3-0.3,8c-0.1,1.6-0.7,3.5-0.3,5.1
	c0.2,1,1.3,1.6,2.2,1.9c0.1,0.1,0.1,0.1,0.2,0.1c0.1,0.1,0.1,0.1,0,0.2c-0.1,0.1-0.1,0.1-0.1,0.1c0,0.5-0.2,0.7-0.7,0.7
	c-1-0.1-2-0.4-2.9-0.9c-0.4-0.1-0.6-0.4-0.5-0.9c0.1-1.3,0.1-2.6,0-3.8c-0.3-2.9-0.7-5.8-1.1-8.7c-0.2-1.3-0.4-2.8-0.6-4.4
	c-0.1-0.9-0.1-0.9-0.2,0c-0.1,1.8-0.4,3.5-0.8,5.2c-0.4,1.6-0.6,3.3-0.7,5.2c-0.3,2.8-0.4,5.3-0.5,7.5c0,0.2,0,0.5,0.1,0.7
	c0,0.1-0.1,0.1-0.1,0.1c-0.5,0.1-1.9,0.2-2.2-0.2c-0.4-0.5,0.1-1.4,0.4-1.9c0.4-0.7,0.4-1.6,0.4-2.7c-0.4-3-0.4-5.4-0.4-7.2
	c0.1-1.7,0.2-3.3,0-5c-0.4-2.4-0.9-4.9-0.7-7.2c0.1-2.1,0.4-3.9,1.3-5.7c0.7-1.9,0.9-4,0.6-6c-0.1-0.5-0.1-0.5-0.1,0
	c-0.1,1.7-0.4,3.4-1.1,4.9c-0.8,1.9-1.4,3.8-1,5.8c0.1,1,0,2.2-1,2.8c-0.4,0.2-0.6,0.1-0.8-0.1c-0.6-1-0.7-2.2-0.2-3.4
	c0.2-0.6,0.3-1.2,0.1-1.8c-0.3-1.8-0.6-3.4-0.7-5.3c-0.1-2-0.5-4.3-1.1-6.6c-0.1-0.1-0.1-0.1-0.1,0c-0.4,1.8-0.7,3.4-0.4,5.2
	c0.3,3,0.5,5.5,0.5,7.5c0.1,3.7,0.1,7.5-0.1,11.3c-0.1,0.7-0.1,1.3,0.1,1.9c0.2,2.5,0.3,4.9,0.1,7.2c-0.1,1.4-0.1,2.8-0.1,4.2
	c0,0.4-0.1,0.9-0.1,1.3c0,0.1,0.1,0.2,0.1,0.3l1.2,1.2c0.1,0.1,0.1,0.4,0.1,0.6c-0.6,0.9-2.2,1.2-2.8,0.1c-0.6-1.1-1-2.3-1.3-3.6
	c-0.4-2-0.6-4.1-0.6-6.1c0-1.4,0.3-3,0.1-4.4c-0.4-4.2-0.8-8.4-1.3-12.4c0-0.1-0.1-0.2-0.1-0.3c-0.1-0.1-0.3-0.1-0.3,0.1
	c-0.5,3.6-1,7.4-1.2,11.3c-0.1,1.3-0.1,2.4,0.1,3.5c0.2,2.2,0.1,5-0.4,8.4c-0.4,2.4-1,4.3-3.9,4.1c-0.4,0-0.6-0.2-0.4-0.7
	c0.4-0.7,0.8-1.3,1.4-2c0.1-0.1,0.1-0.4,0-0.7l-0.1-0.1c-0.1-0.1-0.1-0.2-0.1-0.4c0.1-1.2,0.1-2.3,0.1-3.4c-0.1-2.4-0.2-4.8-0.1-7.1
	c0.1-1.5,0.1-3.1,0.1-4.8c-0.1-4-0.1-7.2-0.1-9.8c0.1-2.2,0.2-4.3,0.4-6.6c0.2-2.1,0-4.1-0.4-6.1c-0.1-0.1-0.1-0.2-0.1,0
	c-0.7,2.5-1,4.8-1,6.9c-0.1,1.9-0.4,3.6-0.6,5.4c-0.1,0.4,0,1,0.1,1.3c0.1,0.7,0.7,1.6,0.4,2.3c-0.2,0.4-0.4,1-0.8,1.5
	c-0.1,0.1-0.4,0.2-0.5,0.1c-1-0.4-1.1-2.4-1-3.4c0.1-0.6,0.1-1.2,0.1-1.7c-0.4-2.9-0.6-5.8-0.4-8.7v-0.1h-0.1c-0.1,0-0.1,0-0.1,0.1
	c-0.4,2.1-0.5,4-0.4,5.9c0.1,2.7,0.1,5.3,0.2,7.9c0.1,2.2-0.1,4.3-0.1,6.4c0.1,4.1,0.1,7.8-0.6,11.6C40.8,73.8,41,75,41.4,77
	c0.1,0.3-0.1,0.4-0.4,0.4l-1.9,0.1c-0.3,0-0.4-0.1-0.4-0.4c-0.1-7.5-0.9-14.8-2.2-22.2c0-0.1-0.1-0.1-0.1-0.1
	c-0.1-0.1-0.1-0.1-0.2,0.1c-0.2,2.2-0.5,4.2-0.7,6.3c-0.1,1.3-0.4,3.4-0.5,6c-0.1,1.6-0.3,3.7-0.7,6c-0.1,0.9-0.1,1.8,0,2.7
	c0.1,0.4-0.1,0.7-0.5,0.7l-4,0.9c-0.2,0.1-0.4-0.1-0.4-0.2l-0.1-0.4c-0.1-0.1,0-0.4,0.1-0.4c1.2-0.4,3.3-1.3,3-2.8
	c-0.4-2.5-0.7-4.7-0.6-6.7c-0.3-3-0.4-6.2-0.5-9.4c-0.1-3,0.1-6.4,0.4-10.4c0.1-1.6,0.1-3.3-0.1-4.9c-0.1-0.6-0.1-0.6-0.2,0
	c-0.3,2.7-0.7,5.5-1.3,8.2c-0.3,1.3-0.3,2.7-0.1,4.4c0.1,0.3,0,0.5-0.1,0.7c-0.1,0.3-0.5,0.4-0.8,0.3c-0.1-0.1-0.1-0.1-0.1-0.1
	c-0.5-0.6-0.7-1.2-0.7-1.8c0.1-1.9,0.1-3.9,0.1-5.8c0-3.6,0.5-7.5,1.3-10.9c0.2-0.9,0.7-1.4,1.6-1.7c0.8-0.3,1.6-0.6,2.5-1
	c1.3-0.5,1.1-1.6,0.7-2.6c-0.7-1.3-0.9-3-0.6-5c0.1-0.4,0.4-0.9,0.9-1.1c1-0.5,2.2-0.4,3.6,0.1c0.7,0.4,0.7,2.5,0.7,3.3
	c0,1-0.7,2.2-1,3.1c-0.4,1-0.1,1.7,1,2.2c1.1,0.4,2.8,0.9,3.7,1.7c0.1,0.1,0.1,0.1,0.1,0v-0.1c0.3-1.6,0.4-4.1,2.2-4.8
	c0.9-0.4,1.9-0.7,2.7-1c2-0.6,1.5-2.7,0.4-4c-0.1-0.1-0.1-0.2-0.1-0.4c-0.1-0.8-0.1-1.9-0.1-3c-0.1-1.2,0.5-2.1,1.6-2.3
	c1.2-0.2,2.6-0.1,3.5,0.7c0.3,0.4,0.4,0.7,0.4,1.2c-0.1,1-0.1,2.1,0,3.1c0,0.1-0.1,0.3-0.1,0.4c-0.3,0.4-0.7,0.5-0.7,1
	c-0.1,0.6-0.2,1.3-0.2,2c0.1,0.7,0.7,1.1,1.4,1.3c0.9,0.3,1.8,0.6,2.7,1c1,0.4,1.6,1,1.9,2.2c0.7,3.1,0.8,6.3,1,9.4
	c0.1,0.8,0.3,1.6,0.4,2.4c0.1,0.1,0.1,0.1,0.1,0c0.1-2.7,0.1-5.4,0.2-8.1c0.1-2.4,2.8-1.5,3.3-3c0.1-0.7,0.2-1.5,0.1-2.4
	c-0.1-0.1-0.1-0.1-0.1,0c-0.4,1.1-0.2,2.5-1.6,3.1c-0.1,0.1-0.1,0-0.2-0.1v-0.1c0-0.2,0.1-0.4,0.1-0.7c0.1-0.1,0.1-0.1,0-0.3
	l-0.3-0.7c-0.1-0.1-0.1-0.1-0.1-0.3c0.1-1,0.5-1.7,0.7-2.7c0.4-2.2,0.7-4.9,3.8-4.3c1.6,0.3,2.2,1.8,2.3,3.3
	c0.1,1.1,0.2,2.4,0.5,3.7c0.1,0.3,0.1,0.6,0.1,1c0,0.1-0.1,0.1-0.1,0.1c-0.7-0.6-0.9-1.3-1.2-2.2C66.6,31.5,66.6,31.6,66.5,31.7z"/>
</svg>
