<?xml version="1.0" encoding="utf-8"?>
<!-- Generator: Adobe Illustrator 28.0.0, SVG Export Plug-In . SVG Version: 6.00 Build 0)  -->
<svg version="1.1" id="Layer_1" xmlns="http://www.w3.org/2000/svg" xmlns:xlink="http://www.w3.org/1999/xlink" x="0px" y="0px"
	 viewBox="0 0 85 100" style="enable-background:new 0 0 85 100;" xml:space="preserve">
<style type="text/css">
	.st0{fill:url(#SVGID_1_);}
</style>
<linearGradient id="SVGID_1_" gradientUnits="userSpaceOnUse" x1="10.02" y1="82.6154" x2="75.0722" y2="17.5632">
	<stop  offset="1.491781e-07" style="stop-color:#7C3AED"/>
	<stop  offset="1" style="stop-color:#BE185D"/>
</linearGradient>
<path class="st0" d="M82.9,75.1c1.1-0.3,1.8-1.5,1.5-2.6c-2.2-7.7-4.9-15.2-8.2-22.5h-0.5c0.1-0.2,0.1-0.4,0.2-0.6
	c3-7.2,5.4-14.6,7.4-22.2c0.3-1.1-0.4-2.3-1.5-2.5c-7.1-1.7-14.3-3-21.5-3.7c-0.6-0.1-1.1-0.4-1.4-0.8c-4.8-6.5-10-12.7-15.7-18.5
	c-0.8-0.8-2.2-0.8-3,0.1c-5.4,5.9-10.3,12.1-14.8,18.7l0.3,0.5c-0.2,0-0.5,0-0.7,0.1c-7.7,0.8-15.3,2.2-22.9,4
	c-1.1,0.3-1.8,1.5-1.5,2.6c2.2,7.5,4.9,15,8.2,22.3h0.5c-0.1,0.2-0.1,0.4-0.2,0.6c-3,7.2-5.4,14.6-7.4,22.2
	c-0.3,1.1,0.4,2.3,1.5,2.5c7.1,1.7,14.3,3,21.5,3.7c0.6,0.1,1.1,0.4,1.4,0.8c4.8,6.5,10,12.7,15.7,18.5c0.8,0.8,2.2,0.8,3-0.1
	c5.4-5.9,10.3-12.1,14.8-18.7L59.3,79c0.2,0,0.5,0,0.7-0.1C67.7,78.3,75.4,77,82.9,75.1z M58.9,74.3c0-0.8,0-1.6-0.1-2.3
	c-0.3-2.9-0.6-5.8-1.2-8.6C57.3,62,57.2,60.6,57,59c-0.1-0.9-0.2-0.9-0.2,0c-0.2,1.7-0.5,3.5-0.9,5.2c-0.3,1.6-0.6,3.3-0.8,5.2
	c-0.3,2.8-0.5,5.3-0.5,7.5c0,0.3,0,0.5,0,0.8c0,0.1,0,0.2-0.2,0.2c-0.5,0.1-1.8,0.3-2.2-0.2s0.2-1.4,0.4-2c0.3-0.8,0.4-1.7,0.3-2.6
	c-0.4-3-0.5-5.4-0.3-7.2c0.1-1.7,0.2-3.3,0-5c-0.4-2.4-0.9-4.8-0.8-7.2c0.1-2,0.4-3.9,1.2-5.7c0.8-1.9,0.9-4,0.6-6
	c-0.1-0.5-0.1-0.5-0.1,0c-0.1,1.7-0.4,3.3-1.1,4.8c-0.9,1.8-1.4,3.8-1.1,5.8c0.2,1.1,0,2.1-0.9,2.8c-0.4,0.2-0.6,0.2-0.8-0.2
	c-0.6-1.1-0.7-2.2-0.2-3.4c0.2-0.6,0.3-1.2,0.2-1.8c-0.3-1.8-0.6-3.4-0.7-5.2c-0.2-2-0.5-4.2-1.2-6.6c-0.1-0.2-0.1-0.2-0.1,0
	c-0.4,1.7-0.6,3.3-0.4,5.2c0.3,3,0.5,5.5,0.5,7.5c0.1,3.7,0.1,7.4-0.1,11.1c0,0.7,0,1.3,0,2c0.2,2.5,0.3,4.9,0.1,7.2
	c-0.1,1.4-0.2,2.8-0.1,4.2c0,0.5-0.2,0.9-0.2,1.4c0,0.1,0,0.2,0.1,0.3l1.1,1.2c0.2,0.2,0.2,0.4,0.1,0.6c-0.6,0.9-2.2,1.2-2.8,0.1
	s-1-2.3-1.3-3.5C44.2,73.1,44,71,44,69c0-1.4,0.3-3,0.2-4.3c-0.4-4.2-0.8-8.3-1.3-12.3c0-0.1-0.1-0.2-0.1-0.3
	c-0.2-0.2-0.3-0.2-0.3,0.1c-0.5,3.6-0.9,7.4-1.2,11.3c-0.1,1.2-0.1,2.4,0,3.5c0.2,2.1,0.1,4.9-0.4,8.4c-0.4,2.4-1,4.3-3.9,4.1
	c-0.4,0-0.6-0.2-0.4-0.6c0.3-0.7,0.8-1.3,1.4-2c0.2-0.2,0.2-0.5,0-0.6L37.7,76c-0.1-0.1-0.2-0.3-0.1-0.4c0.1-1.1,0.2-2.3,0.1-3.4
	c-0.2-2.4-0.2-4.8-0.1-7c0.1-1.5,0.1-3.1,0.1-4.8c-0.1-4-0.1-7.2,0-9.7c0.1-2.1,0.2-4.3,0.5-6.5c0.2-2.1,0-4.1-0.5-6.1
	c0-0.2-0.1-0.2-0.2,0c-0.6,2.5-1,4.8-1.1,6.9c0,1.8-0.5,3.6-0.6,5.4c0,0.5,0,0.9,0.2,1.4c0.2,0.6,0.6,1.6,0.4,2.3
	c-0.2,0.5-0.5,1-0.8,1.5c-0.1,0.2-0.3,0.2-0.5,0.2c-1-0.5-1.1-2.4-0.9-3.4c0.1-0.6,0.2-1.2,0.1-1.7c-0.4-2.9-0.6-5.8-0.5-8.7l0,0
	h-0.1c0,0-0.1,0-0.1,0.1c-0.3,2.1-0.5,4-0.4,5.9c0.1,2.7,0.1,5.2,0.2,7.9c0.1,2.1-0.1,4.2,0,6.4c0.1,4.1,0.1,7.7-0.6,11.5
	c-0.1,0.6,0.1,1.9,0.5,3.8c0.1,0.3,0,0.5-0.4,0.5L31,77.7c-0.3,0-0.5-0.1-0.5-0.4c-0.2-7.4-0.9-14.8-2.2-22.1c0-0.1,0-0.1-0.1-0.2
	c-0.1-0.2-0.2-0.2-0.2,0.1c-0.2,2.1-0.5,4.2-0.8,6.3c-0.2,1.4-0.4,3.3-0.5,5.9c-0.1,1.7-0.3,3.6-0.6,5.9c-0.1,0.9-0.1,1.8,0,2.6
	c0.1,0.4-0.2,0.7-0.5,0.8l-4,0.9c-0.2,0-0.4,0-0.5-0.2l-0.2-0.5c-0.1-0.2,0-0.3,0.2-0.4c1.2-0.3,3.2-1.3,3-2.8
	c-0.5-2.4-0.6-4.6-0.6-6.6c0.1-3.2,0-6.4-0.1-9.6c-0.1-3,0.1-6.4,0.4-10.4c0.1-1.6,0.1-3.2-0.2-4.8c-0.1-0.6-0.2-0.6-0.3,0
	c-0.3,2.7-0.7,5.4-1.3,8.2c-0.3,1.3-0.3,2.7-0.1,4.4c0,0.3,0,0.5-0.1,0.8c-0.2,0.3-0.5,0.4-0.8,0.3c-0.1,0-0.1-0.1-0.2-0.1
	c-0.5-0.6-0.8-1.2-0.7-1.8c0.1-1.9,0.2-3.8,0.2-5.9c0-3.6,0.5-7.4,1.3-10.8c0.2-0.9,0.7-1.4,1.6-1.7c0.8-0.3,1.7-0.6,2.5-1
	c1.2-0.5,1.1-1.6,0.6-2.6c-0.7-1.4-0.9-3-0.6-5c0.1-0.5,0.4-0.9,0.9-1.1c1-0.5,2.2-0.5,3.5,0.2c0.8,0.4,0.7,2.4,0.7,3.3
	c0,1-0.7,2.1-1.1,3.1s-0.1,1.7,0.9,2.1c1.1,0.4,2.8,0.9,3.7,1.7c0.1,0,0.1,0,0.2,0c0,0,0,0,0-0.1c0.3-1.6,0.4-4.1,2.2-4.8
	c0.9-0.3,1.8-0.7,2.7-0.9c1.8-0.5,1.6-2.3,0.7-3.6c-0.2-0.4-0.5-1-0.5-1.4c0-0.7-0.1-1.5-0.1-2.3c-0.1-1.2,0.5-2,1.7-2.3
	c1.2-0.2,2.6-0.2,3.5,0.8c0.3,0.3,0.5,0.7,0.4,1.2c-0.1,1-0.1,2,0,3c0,0.2,0,0.3-0.2,0.4c-0.3,0.3-0.7,0.5-0.8,1
	c-0.2,0.6-0.3,1.3-0.2,2c0,0.8,0.8,1.1,1.4,1.3c0.9,0.3,1.8,0.6,2.7,1c1,0.5,1.6,1.1,1.8,2.2c0.6,3.1,0.8,6.2,1,9.4
	c0,0.8,0.3,1.6,0.4,2.4c0,0.2,0.1,0.2,0.1,0c0.1-2.7,0.1-5.4,0.2-8c0.1-2.3,2.8-1.4,3.2-3c0.2-0.7,0.2-1.5,0.1-2.3
	c0-0.2-0.1-0.2-0.2,0c-0.4,1.1-0.2,2.5-1.5,3.1c-0.1,0-0.2,0-0.3-0.1v-0.1c0-0.2,0-0.4,0.2-0.6c0.1-0.1,0.1-0.2,0-0.3l-0.3-0.7
	c0-0.1-0.1-0.2,0-0.3c0.1-0.9,0.5-1.7,0.7-2.6c0.3-2.1,0.8-4.9,3.8-4.3c1.6,0.3,2.2,1.8,2.3,3.2c0.1,1.1,0.3,2.3,0.5,3.7
	c0.1,0.3,0.1,0.6,0.1,0.9c0,0.2-0.1,0.2-0.2,0.1c-0.7-0.6-0.9-1.3-1.2-2.1c-0.1-0.2-0.1-0.2-0.1,0c0,1,0.2,2.6,1.4,3
	c2,0.7,2.5,1.6,2.7,3.7c0.3,3.3,0.8,6.3,1.3,9c0.3,1.7,0.3,3.5,0.7,5.2c0.1,0.6,0.3,2.8-0.7,2.9c-0.5,0.1-0.8-0.2-0.7-0.7
	c0.1-1.8,0-3.6-0.5-5.2c-0.7-2.6-1.7-5-2-7.6c-0.1-0.6-0.1-0.6-0.2,0c-0.2,1.8-0.4,3.3,0.3,5c1.3,3.1,1.6,6.6,1,9.9
	c-0.2,1.3-0.5,2.7-0.8,4.1c-0.6,2.7,0,5.3-0.3,8c-0.2,1.6-0.7,3.5-0.3,5.1c0.2,0.9,1.4,1.6,2.2,2c0.1,0,0.2,0.1,0.2,0.2
	c0.1,0.1,0,0.2,0,0.3c0,0,0,0.1,0,0.2c0,0.5-0.2,0.7-0.7,0.6c-0.4-0.1-0.9-0.2-1.3-0.3C59.7,76.9,58.8,75.7,58.9,74.3z"/>
</svg>
