<?xml version="1.0" encoding="utf-8"?>
<!-- Generator: Adobe Illustrator 28.0.0, SVG Export Plug-In . SVG Version: 6.00 Build 0)  -->
<svg version="1.1" id="Layer_1" xmlns="http://www.w3.org/2000/svg" xmlns:xlink="http://www.w3.org/1999/xlink" x="0px" y="0px"
	 viewBox="0 0 100 100" style="enable-background:new 0 0 100 100;" xml:space="preserve">
<style type="text/css">
	.st0{fill:#FFCC33;}
</style>
<path class="st0" d="M72,25.6c-0.1,1.3,0.3,3.6,1.9,4.1c2.7,1,3.3,2.2,3.6,5c0.5,4.4,1,8.5,1.7,12.1c0.5,2.3,0.4,4.7,1,7.1
	c0.2,0.9,0.4,3.7-1,3.9c-0.7,0.1-1-0.2-1-1c0.2-2.5-0.1-4.8-0.7-7.1c-1-3.5-2.2-6.7-2.6-10.2c-0.1-0.9-0.2-0.9-0.3,0
	c-0.2,2.4-0.6,4.4,0.4,6.7c1.8,4.2,2.1,8.9,1.3,13.4c-0.3,1.7-0.7,3.6-1.1,5.5c-0.8,3.6,0,7.1-0.4,10.7c-0.2,2.2-1,4.7-0.4,6.8
	c0.3,1.3,1.8,2.1,3,2.6c0.2,0.1,0.2,0.2,0.3,0.2c0.1,0.1,0.1,0.2,0,0.3s-0.1,0.2-0.1,0.2c0,0.7-0.3,1-0.9,0.9
	c-1.3-0.2-2.7-0.6-3.9-1.2c-0.6-0.2-0.8-0.6-0.7-1.2c0.2-1.7,0.2-3.5,0-5.1c-0.4-3.9-0.9-7.8-1.5-11.6c-0.3-1.8-0.6-3.8-0.8-5.9
	c-0.1-1.2-0.2-1.2-0.3,0c-0.2,2.4-0.6,4.7-1.1,7c-0.5,2.1-0.8,4.4-1,7c-0.4,3.7-0.6,7.1-0.7,10.1c0,0.3,0,0.7,0.1,1
	c0,0.2-0.1,0.2-0.2,0.2c-0.7,0.1-2.5,0.3-3-0.3c-0.6-0.7,0.2-1.9,0.6-2.6c0.5-1,0.6-2.2,0.5-3.6c-0.5-4-0.6-7.3-0.5-9.7
	c0.2-2.3,0.3-4.4,0-6.7c-0.5-3.2-1.2-6.5-1-9.7c0.1-2.8,0.6-5.2,1.7-7.7c1-2.5,1.2-5.4,0.8-8.1c-0.1-0.7-0.2-0.7-0.2,0
	c-0.1,2.3-0.6,4.5-1.5,6.5c-1.1,2.5-1.9,5.1-1.4,7.8c0.2,1.4,0,2.9-1.3,3.7c-0.5,0.3-0.8,0.2-1.1-0.2c-0.8-1.4-0.9-3-0.3-4.6
	c0.3-0.8,0.4-1.6,0.2-2.4c-0.4-2.4-0.8-4.6-1-7.1c-0.2-2.7-0.7-5.7-1.5-8.9c-0.1-0.2-0.2-0.2-0.2,0c-0.5,2.4-0.9,4.5-0.6,7
	c0.4,4,0.7,7.4,0.7,10.1c0.1,5,0.2,10-0.2,15.1c-0.1,0.9-0.1,1.7,0.1,2.6c0.3,3.3,0.4,6.6,0.2,9.7c-0.2,1.9-0.2,3.7-0.2,5.6
	c0,0.6-0.2,1.2-0.2,1.8c0,0.2,0.1,0.3,0.2,0.4l1.6,1.6c0.2,0.2,0.2,0.6,0.1,0.8c-0.8,1.2-3,1.6-3.8,0.1c-0.8-1.5-1.4-3.1-1.7-4.8
	c-0.5-2.7-0.8-5.5-0.8-8.2c0-1.9,0.4-4,0.2-5.9c-0.6-5.6-1.1-11.2-1.7-16.6c0-0.2-0.1-0.3-0.2-0.4c-0.2-0.2-0.4-0.2-0.4,0.2
	c-0.7,4.8-1.3,9.9-1.6,15.2c-0.1,1.7-0.1,3.2,0.1,4.7c0.3,2.9,0.1,6.7-0.6,11.3c-0.5,3.2-1.3,5.8-5.2,5.5c-0.6,0-0.8-0.3-0.5-0.9
	c0.5-1,1.1-1.8,1.9-2.7c0.2-0.2,0.2-0.6,0-0.9l-0.2-0.2c-0.2-0.2-0.2-0.3-0.2-0.6c0.2-1.6,0.2-3.1,0.1-4.6c-0.2-3.2-0.3-6.4-0.1-9.5
	c0.2-2,0.2-4.2,0.1-6.4c-0.2-5.3-0.2-9.7-0.1-13.1c0.1-2.9,0.3-5.8,0.6-8.8c0.3-2.8,0-5.5-0.6-8.2c-0.1-0.2-0.2-0.3-0.2,0
	c-0.9,3.3-1.3,6.4-1.4,9.3c-0.1,2.5-0.6,4.8-0.8,7.2c-0.1,0.6,0,1.3,0.2,1.8c0.2,0.9,0.9,2.2,0.5,3.1c-0.3,0.6-0.6,1.3-1.1,2
	c-0.2,0.2-0.5,0.3-0.7,0.2c-1.4-0.6-1.5-3.2-1.3-4.5c0.2-0.8,0.2-1.6,0.2-2.3c-0.6-3.9-0.8-7.8-0.6-11.7v-0.1h-0.2
	c-0.1,0-0.1,0-0.1,0.1c-0.5,2.8-0.7,5.4-0.6,7.9c0.2,3.6,0.2,7.1,0.3,10.6c0.1,2.9-0.2,5.7-0.1,8.6c0.2,5.5,0.1,10.4-0.8,15.5
	c-0.2,0.9,0.1,2.5,0.7,5.1c0.1,0.4-0.1,0.6-0.5,0.6l-2.5,0.2c-0.4,0-0.6-0.2-0.6-0.6c-0.2-10-1.2-19.9-2.9-29.8
	c0-0.1-0.1-0.2-0.1-0.2c-0.2-0.2-0.2-0.2-0.3,0.1c-0.3,2.9-0.7,5.6-1,8.5c-0.2,1.8-0.5,4.5-0.7,8c-0.2,2.2-0.4,4.9-0.9,8
	c-0.2,1.2-0.2,2.4,0,3.6c0.1,0.5-0.2,1-0.7,1l-5.4,1.2c-0.3,0.1-0.5-0.1-0.6-0.3L22,85.9c-0.1-0.2,0-0.5,0.2-0.6
	c1.6-0.5,4.4-1.7,4-3.8c-0.6-3.3-0.9-6.3-0.8-9c-0.4-4-0.6-8.3-0.7-12.6c-0.1-4,0.1-8.6,0.6-14c0.2-2.1,0.2-4.4-0.2-6.5
	c-0.2-0.8-0.2-0.8-0.3,0c-0.4,3.6-1,7.4-1.7,11c-0.4,1.7-0.4,3.6-0.2,5.9c0.1,0.4,0,0.7-0.2,1c-0.2,0.4-0.7,0.6-1.1,0.4
	c-0.1-0.1-0.2-0.1-0.2-0.2c-0.7-0.8-1-1.6-1-2.4c0.2-2.5,0.2-5.2,0.2-7.8c0-4.8,0.7-10,1.8-14.6c0.3-1.2,1-1.9,2.1-2.3
	s2.2-0.8,3.4-1.3c1.7-0.7,1.5-2.1,0.9-3.5c-1-1.8-1.2-4-0.8-6.7c0.1-0.6,0.6-1.2,1.2-1.5c1.4-0.7,2.9-0.6,4.8,0.2c1,0.6,1,3.3,1,4.4
	c0,1.3-1,2.9-1.4,4.1c-0.6,1.3-0.1,2.3,1.3,2.9c1.5,0.6,3.8,1.2,5,2.3c0.1,0.1,0.2,0.1,0.2,0v-0.1c0.4-2.1,0.6-5.5,2.9-6.4
	c1.2-0.5,2.5-0.9,3.6-1.3c2.7-0.8,2-3.6,0.6-5.4c-0.2-0.2-0.2-0.3-0.2-0.6c-0.1-1.1-0.2-2.5-0.2-4c-0.1-1.6,0.7-2.8,2.2-3.1
	c1.6-0.3,3.5-0.2,4.7,1c0.4,0.5,0.6,1,0.6,1.6c-0.1,1.4-0.1,2.8,0,4.1c0,0.2-0.1,0.4-0.2,0.6c-0.4,0.5-0.9,0.7-1,1.3
	c-0.2,0.8-0.3,1.7-0.3,2.7c0.1,1,1,1.5,1.9,1.7c1.2,0.4,2.4,0.8,3.6,1.3c1.4,0.6,2.1,1.4,2.5,3c0.9,4.2,1.1,8.4,1.3,12.6
	c0.1,1.1,0.4,2.1,0.6,3.2c0.1,0.2,0.1,0.2,0.1,0c0.2-3.6,0.2-7.3,0.3-10.8c0.1-3.2,3.8-2,4.4-4c0.2-1,0.3-2,0.1-3.2
	c-0.1-0.2-0.1-0.2-0.2,0c-0.6,1.5-0.3,3.4-2.1,4.2c-0.2,0.1-0.2,0-0.3-0.2v-0.1c0-0.3,0.1-0.6,0.2-0.9c0.1-0.2,0.1-0.2,0-0.4
	l-0.4-0.9c-0.1-0.2-0.1-0.2-0.1-0.4c0.2-1.3,0.7-2.3,0.9-3.6c0.5-2.9,1-6.6,5.1-5.8c2.1,0.4,2.9,2.4,3.1,4.4c0.1,1.5,0.3,3.2,0.7,5
	c0.1,0.4,0.1,0.8,0.1,1.3c0,0.2-0.1,0.2-0.2,0.1c-1-0.8-1.2-1.7-1.6-2.9C72.1,25.3,72.1,25.4,72,25.6z"/>
<g>
	<path class="st0" d="M50,3c25.9,0,47,21.1,47,47S75.9,97,50,97S3,75.9,3,50S24.1,3,50,3 M50,0C22.4,0,0,22.4,0,50s22.4,50,50,50
		s50-22.4,50-50S77.6,0,50,0L50,0z"/>
</g>
</svg>
